<svg width="1920" height="558" viewBox="0 0 1920 558" fill="none" xmlns="http://www.w3.org/2000/svg">
<g clip-path="url(#clip0_1_418)">
<g opacity="0.06" filter="url(#filter0_d_1_418)">
<g opacity="0.4">
<path d="M30.7076 446.011L-5.43392 390.489L66.8491 390.489L30.7076 446.011Z" fill="white" fill-opacity="0.06"/>
<path d="M102.991 446.011L66.8491 390.489L139.132 390.489L102.991 446.011Z" fill="white" fill-opacity="0.27"/>
<path d="M175.274 446.011L139.132 390.489L211.415 390.489L175.274 446.011Z" fill="white" fill-opacity="0.46"/>
<path d="M247.557 446.011L211.415 390.489L283.698 390.489L247.557 446.011Z" fill="white" fill-opacity="0.76"/>
<path d="M319.84 446.011L283.698 390.489L355.981 390.489L319.84 446.011Z" fill="white" fill-opacity="0.46"/>
<path d="M392.123 446.011L355.981 390.489L428.264 390.489L392.123 446.011Z" fill="white" fill-opacity="0.27"/>
<path d="M464.406 446.011L428.264 390.489L500.547 390.489L464.406 446.011Z" fill="white" fill-opacity="0.06"/>
<path d="M536.689 446.011L500.547 390.489L572.83 390.489L536.689 446.011Z" fill="white" fill-opacity="0.27"/>
<path d="M608.972 446.011L572.83 390.489L645.113 390.489L608.972 446.011Z" fill="white" fill-opacity="0.16"/>
<path d="M681.255 446.011L645.113 390.489L717.396 390.489L681.255 446.011Z" fill="white" fill-opacity="0.07"/>
<path d="M753.538 446.011L717.396 390.489L789.679 390.489L753.538 446.011Z" fill="white" fill-opacity="0.46"/>
<path d="M825.821 446.011L789.679 390.489L861.962 390.489L825.821 446.011Z" fill="white" fill-opacity="0.27"/>
<path d="M898.104 446.011L861.962 390.489L934.245 390.489L898.104 446.011Z" fill="white" fill-opacity="0.06"/>
<path d="M970.387 446.011L934.245 390.489L1006.53 390.489L970.387 446.011Z" fill="white" fill-opacity="0.27"/>
<path d="M1042.67 446.011L1006.53 390.489L1078.81 390.489L1042.67 446.011Z" fill="white" fill-opacity="0.46"/>
<path d="M1114.95 446.011L1078.81 390.489L1151.09 390.489L1114.95 446.011Z" fill="white" fill-opacity="0.76"/>
<path d="M1187.24 446.011L1151.09 390.489L1223.38 390.489L1187.24 446.011Z" fill="white" fill-opacity="0.46"/>
<path d="M1259.52 446.011L1223.38 390.489L1295.66 390.489L1259.52 446.011Z" fill="white" fill-opacity="0.27"/>
<path d="M1331.8 446.011L1295.66 390.489L1367.94 390.489L1331.8 446.011Z" fill="white" fill-opacity="0.06"/>
<path d="M1404.09 446.011L1367.94 390.489L1440.23 390.489L1404.09 446.011Z" fill="white" fill-opacity="0.27"/>
<path d="M1476.37 446.011L1440.23 390.489L1512.51 390.489L1476.37 446.011Z" fill="white" fill-opacity="0.16"/>
<path d="M1548.65 446.011L1512.51 390.489L1584.79 390.489L1548.65 446.011Z" fill="white" fill-opacity="0.07"/>
<path d="M1620.93 446.011L1584.79 390.489L1657.08 390.489L1620.93 446.011Z" fill="white" fill-opacity="0.46"/>
<path d="M1693.22 446.011L1657.08 390.489L1729.36 390.489L1693.22 446.011Z" fill="white" fill-opacity="0.27"/>
<path d="M1765.5 446.011L1729.36 390.489L1801.64 390.489L1765.5 446.011Z" fill="white" fill-opacity="0.06"/>
<path d="M1837.78 446.011L1801.64 390.489L1873.93 390.489L1837.78 446.011Z" fill="white" fill-opacity="0.27"/>
<path d="M1910.07 446.011L1873.93 390.489L1946.21 390.489L1910.07 446.011Z" fill="white" fill-opacity="0.46"/>
</g>
<g opacity="0.8">
<path d="M31.2737 222.028L-4.86786 166.507L67.4152 166.507L31.2737 222.028Z" fill="white" fill-opacity="0.46"/>
<path d="M103.557 222.028L67.4152 166.507L139.698 166.507L103.557 222.028Z" fill="white" fill-opacity="0.76"/>
<path d="M175.84 222.028L139.698 166.507L211.981 166.507L175.84 222.028Z" fill="white" fill-opacity="0.46"/>
<path d="M248.123 222.028L211.981 166.507L284.264 166.507L248.123 222.028Z" fill="white" fill-opacity="0.27"/>
<path d="M320.406 222.028L284.264 166.507L356.547 166.507L320.406 222.028Z" fill="white" fill-opacity="0.06"/>
<path d="M392.689 222.028L356.547 166.507L428.83 166.507L392.689 222.028Z" fill="white" fill-opacity="0.27"/>
<path d="M464.972 222.028L428.83 166.507L501.113 166.507L464.972 222.028Z" fill="white" fill-opacity="0.16"/>
<path d="M537.255 222.028L501.113 166.507L573.396 166.507L537.255 222.028Z" fill="white" fill-opacity="0.07"/>
<path d="M609.538 222.028L573.396 166.507L645.679 166.507L609.538 222.028Z" fill="white" fill-opacity="0.46"/>
<path d="M681.821 222.028L645.679 166.507L717.962 166.507L681.821 222.028Z" fill="white" fill-opacity="0.27"/>
<path d="M754.104 222.028L717.962 166.507L790.245 166.507L754.104 222.028Z" fill="white" fill-opacity="0.06"/>
<path d="M826.387 222.028L790.245 166.507L862.528 166.507L826.387 222.028Z" fill="white" fill-opacity="0.27"/>
<path d="M898.67 222.028L862.529 166.507L934.812 166.507L898.67 222.028Z" fill="white" fill-opacity="0.46"/>
<path d="M970.953 222.028L934.812 166.507L1007.09 166.507L970.953 222.028Z" fill="white" fill-opacity="0.76"/>
<path d="M1043.24 222.028L1007.09 166.507L1079.38 166.507L1043.24 222.028Z" fill="white" fill-opacity="0.46"/>
<path d="M1115.52 222.028L1079.38 166.507L1151.66 166.507L1115.52 222.028Z" fill="white" fill-opacity="0.27"/>
<path d="M1187.8 222.028L1151.66 166.507L1223.94 166.507L1187.8 222.028Z" fill="white" fill-opacity="0.06"/>
<path d="M1260.09 222.028L1223.94 166.507L1296.23 166.507L1260.09 222.028Z" fill="white" fill-opacity="0.27"/>
<path d="M1332.37 222.028L1296.23 166.507L1368.51 166.507L1332.37 222.028Z" fill="white" fill-opacity="0.16"/>
<path d="M1404.65 222.028L1368.51 166.507L1440.79 166.507L1404.65 222.028Z" fill="white" fill-opacity="0.07"/>
<path d="M1476.93 222.028L1440.79 166.507L1513.08 166.507L1476.93 222.028Z" fill="white" fill-opacity="0.46"/>
<path d="M1549.22 222.028L1513.08 166.507L1585.36 166.507L1549.22 222.028Z" fill="white" fill-opacity="0.27"/>
<path d="M1621.5 222.028L1585.36 166.507L1657.64 166.507L1621.5 222.028Z" fill="white" fill-opacity="0.06"/>
<path d="M1693.78 222.028L1657.64 166.507L1729.93 166.507L1693.78 222.028Z" fill="white" fill-opacity="0.27"/>
<path d="M1766.07 222.028L1729.93 166.507L1802.21 166.507L1766.07 222.028Z" fill="white" fill-opacity="0.46"/>
<path d="M1838.35 222.028L1802.21 166.507L1874.49 166.507L1838.35 222.028Z" fill="white" fill-opacity="0.76"/>
<path d="M1910.63 222.028L1874.49 166.507L1946.77 166.507L1910.63 222.028Z" fill="white" fill-opacity="0.46"/>
</g>
<g opacity="0.6">
<path d="M30.9906 334.02L-5.15088 278.498L67.1321 278.498L30.9906 334.02Z" fill="white" fill-opacity="0.27"/>
<path d="M103.274 334.02L67.1321 278.498L139.415 278.498L103.274 334.02Z" fill="white" fill-opacity="0.46"/>
<path d="M175.557 334.02L139.415 278.498L211.698 278.498L175.557 334.02Z" fill="white" fill-opacity="0.16"/>
<path d="M247.84 334.02L211.698 278.498L283.981 278.498L247.84 334.02Z" fill="white" fill-opacity="0.16"/>
<path d="M320.123 334.02L283.981 278.498L356.264 278.498L320.123 334.02Z" fill="white" fill-opacity="0.07"/>
<path d="M392.406 334.02L356.264 278.498L428.547 278.498L392.406 334.02Z" fill="white" fill-opacity="0.16"/>
<path d="M464.689 334.02L428.547 278.498L500.83 278.498L464.689 334.02Z" fill="white" fill-opacity="0.27"/>
<path d="M536.972 334.02L500.83 278.498L573.113 278.498L536.972 334.02Z" fill="white" fill-opacity="0.46"/>
<path d="M609.255 334.02L573.113 278.498L645.396 278.498L609.255 334.02Z" fill="white" fill-opacity="0.07"/>
<path d="M681.538 334.02L645.396 278.498L717.679 278.498L681.538 334.02Z" fill="white" fill-opacity="0.16"/>
<path d="M753.821 334.02L717.679 278.498L789.962 278.498L753.821 334.02Z" fill="white" fill-opacity="0.07"/>
<path d="M826.104 334.02L789.962 278.498L862.245 278.498L826.104 334.02Z" fill="white" fill-opacity="0.16"/>
<path d="M898.387 334.02L862.245 278.498L934.528 278.498L898.387 334.02Z" fill="white" fill-opacity="0.27"/>
<path d="M970.67 334.02L934.529 278.498L1006.81 278.498L970.67 334.02Z" fill="white" fill-opacity="0.46"/>
<path d="M1042.95 334.02L1006.81 278.498L1079.09 278.498L1042.95 334.02Z" fill="white" fill-opacity="0.16"/>
<path d="M1115.24 334.02L1079.09 278.498L1151.38 278.498L1115.24 334.02Z" fill="white" fill-opacity="0.16"/>
<path d="M1187.52 334.02L1151.38 278.498L1223.66 278.498L1187.52 334.02Z" fill="white" fill-opacity="0.07"/>
<path d="M1259.8 334.02L1223.66 278.498L1295.94 278.498L1259.8 334.02Z" fill="white" fill-opacity="0.16"/>
<path d="M1332.09 334.02L1295.94 278.498L1368.23 278.498L1332.09 334.02Z" fill="white" fill-opacity="0.27"/>
<path d="M1404.37 334.02L1368.23 278.498L1440.51 278.498L1404.37 334.02Z" fill="white" fill-opacity="0.46"/>
<path d="M1476.65 334.02L1440.51 278.498L1512.79 278.498L1476.65 334.02Z" fill="white" fill-opacity="0.07"/>
<path d="M1548.93 334.02L1512.79 278.498L1585.08 278.498L1548.93 334.02Z" fill="white" fill-opacity="0.16"/>
<path d="M1621.22 334.02L1585.08 278.498L1657.36 278.498L1621.22 334.02Z" fill="white" fill-opacity="0.07"/>
<path d="M1693.5 334.02L1657.36 278.498L1729.64 278.498L1693.5 334.02Z" fill="white" fill-opacity="0.16"/>
<path d="M1765.78 334.02L1729.64 278.498L1801.93 278.498L1765.78 334.02Z" fill="white" fill-opacity="0.27"/>
<path d="M1838.07 334.02L1801.93 278.498L1874.21 278.498L1838.07 334.02Z" fill="white" fill-opacity="0.46"/>
<path d="M1910.35 334.02L1874.21 278.498L1946.49 278.498L1910.35 334.02Z" fill="white" fill-opacity="0.16"/>
</g>
<path d="M31.5567 111.037L-4.58484 55.5152L67.6982 55.5152L31.5567 111.037Z" fill="white" fill-opacity="0.16"/>
<path d="M103.84 111.037L67.6982 55.5152L139.981 55.5152L103.84 111.037Z" fill="white" fill-opacity="0.16"/>
<path d="M176.123 111.037L139.981 55.5152L212.264 55.5152L176.123 111.037Z" fill="white" fill-opacity="0.07"/>
<path d="M248.406 111.037L212.264 55.5152L284.547 55.5152L248.406 111.037Z" fill="white" fill-opacity="0.16"/>
<path d="M320.689 111.037L284.547 55.5152L356.83 55.5152L320.689 111.037Z" fill="white" fill-opacity="0.27"/>
<path d="M392.972 111.037L356.83 55.5152L429.113 55.5152L392.972 111.037Z" fill="white" fill-opacity="0.46"/>
<path d="M465.255 111.037L429.113 55.5152L501.396 55.5152L465.255 111.037Z" fill="white" fill-opacity="0.07"/>
<path d="M537.538 111.037L501.396 55.5152L573.679 55.5152L537.538 111.037Z" fill="white" fill-opacity="0.16"/>
<path d="M609.821 111.037L573.679 55.5152L645.962 55.5152L609.821 111.037Z" fill="white" fill-opacity="0.07"/>
<path d="M682.104 111.037L645.962 55.5152L718.245 55.5152L682.104 111.037Z" fill="white" fill-opacity="0.16"/>
<path d="M754.387 111.037L718.245 55.5152L790.528 55.5152L754.387 111.037Z" fill="white" fill-opacity="0.27"/>
<path d="M826.67 111.037L790.529 55.5152L862.812 55.5152L826.67 111.037Z" fill="white" fill-opacity="0.46"/>
<path d="M898.953 111.037L862.812 55.5152L935.095 55.5152L898.953 111.037Z" fill="white" fill-opacity="0.16"/>
<path d="M971.236 111.037L935.095 55.5152L1007.38 55.5152L971.236 111.037Z" fill="white" fill-opacity="0.16"/>
<path d="M1043.52 111.037L1007.38 55.5152L1079.66 55.5152L1043.52 111.037Z" fill="white" fill-opacity="0.07"/>
<path d="M1115.8 111.037L1079.66 55.5152L1151.94 55.5152L1115.8 111.037Z" fill="white" fill-opacity="0.16"/>
<path d="M1188.09 111.037L1151.94 55.5152L1224.23 55.5152L1188.09 111.037Z" fill="white" fill-opacity="0.27"/>
<path d="M1260.37 111.037L1224.23 55.5152L1296.51 55.5152L1260.37 111.037Z" fill="white" fill-opacity="0.46"/>
<path d="M1332.65 111.037L1296.51 55.5152L1368.79 55.5152L1332.65 111.037Z" fill="white" fill-opacity="0.07"/>
<path d="M1404.93 111.037L1368.79 55.5152L1441.08 55.5152L1404.93 111.037Z" fill="white" fill-opacity="0.16"/>
<path d="M1477.22 111.037L1441.08 55.5152L1513.36 55.5152L1477.22 111.037Z" fill="white" fill-opacity="0.07"/>
<path d="M1549.5 111.037L1513.36 55.5152L1585.64 55.5152L1549.5 111.037Z" fill="white" fill-opacity="0.16"/>
<path d="M1621.78 111.037L1585.64 55.5152L1657.93 55.5152L1621.78 111.037Z" fill="white" fill-opacity="0.27"/>
<path d="M1694.07 111.037L1657.93 55.5152L1730.21 55.5152L1694.07 111.037Z" fill="white" fill-opacity="0.46"/>
<path d="M1766.35 111.037L1730.21 55.5152L1802.49 55.5152L1766.35 111.037Z" fill="white" fill-opacity="0.16"/>
<path d="M1838.63 111.037L1802.49 55.5152L1874.77 55.5152L1838.63 111.037Z" fill="white" fill-opacity="0.16"/>
<path d="M1910.92 111.037L1874.77 55.5152L1947.06 55.5152L1910.92 111.037Z" fill="white" fill-opacity="0.07"/>
<g opacity="0.3">
<path d="M-5.57544 502.006L-41.717 446.485L30.5661 446.485L-5.57544 502.006Z" fill="white" fill-opacity="0.16"/>
<path d="M66.7076 502.006L30.5661 446.485L102.849 446.485L66.7076 502.006Z" fill="white" fill-opacity="0.16"/>
<path d="M138.991 502.006L102.849 446.485L175.132 446.485L138.991 502.006Z" fill="white" fill-opacity="0.07"/>
<path d="M211.274 502.006L175.132 446.485L247.415 446.485L211.274 502.006Z" fill="white" fill-opacity="0.16"/>
<path d="M283.557 502.006L247.415 446.485L319.698 446.485L283.557 502.006Z" fill="white" fill-opacity="0.27"/>
<path d="M355.84 502.006L319.698 446.485L391.981 446.485L355.84 502.006Z" fill="white" fill-opacity="0.46"/>
<path d="M428.123 502.006L391.981 446.485L464.264 446.485L428.123 502.006Z" fill="white" fill-opacity="0.16"/>
<path d="M500.406 502.006L464.264 446.485L536.547 446.485L500.406 502.006Z" fill="white" fill-opacity="0.76"/>
<path d="M572.689 502.006L536.547 446.485L608.83 446.485L572.689 502.006Z" fill="white" fill-opacity="0.07"/>
<path d="M644.972 502.006L608.83 446.485L681.113 446.485L644.972 502.006Z" fill="white" fill-opacity="0.46"/>
<path d="M717.255 502.006L681.113 446.485L753.396 446.485L717.255 502.006Z" fill="white" fill-opacity="0.12"/>
<path d="M789.538 502.006L753.396 446.485L825.679 446.485L789.538 502.006Z" fill="white" fill-opacity="0.46"/>
<path d="M861.821 502.006L825.679 446.485L897.962 446.485L861.821 502.006Z" fill="white" fill-opacity="0.16"/>
<path d="M934.104 502.006L897.962 446.485L970.245 446.485L934.104 502.006Z" fill="white" fill-opacity="0.16"/>
<path d="M1006.39 502.006L970.245 446.485L1042.53 446.485L1006.39 502.006Z" fill="white" fill-opacity="0.07"/>
<path d="M1078.67 502.006L1042.53 446.485L1114.81 446.485L1078.67 502.006Z" fill="white" fill-opacity="0.16"/>
<path d="M1150.95 502.006L1114.81 446.485L1187.09 446.485L1150.95 502.006Z" fill="white" fill-opacity="0.27"/>
<path d="M1223.24 502.006L1187.09 446.485L1259.38 446.485L1223.24 502.006Z" fill="white" fill-opacity="0.46"/>
<path d="M1295.52 502.006L1259.38 446.485L1331.66 446.485L1295.52 502.006Z" fill="white" fill-opacity="0.16"/>
<path d="M1367.8 502.006L1331.66 446.485L1403.94 446.485L1367.8 502.006Z" fill="white" fill-opacity="0.76"/>
<path d="M1440.09 502.006L1403.94 446.485L1476.23 446.485L1440.09 502.006Z" fill="white" fill-opacity="0.07"/>
<path d="M1512.37 502.006L1476.23 446.485L1548.51 446.485L1512.37 502.006Z" fill="white" fill-opacity="0.46"/>
<path d="M1584.65 502.006L1548.51 446.485L1620.79 446.485L1584.65 502.006Z" fill="white" fill-opacity="0.12"/>
<path d="M1656.93 502.006L1620.79 446.485L1693.08 446.485L1656.93 502.006Z" fill="white" fill-opacity="0.46"/>
<path d="M1729.22 502.006L1693.08 446.485L1765.36 446.485L1729.22 502.006Z" fill="white" fill-opacity="0.16"/>
<path d="M1801.5 502.006L1765.36 446.485L1837.64 446.485L1801.5 502.006Z" fill="white" fill-opacity="0.16"/>
<path d="M1873.78 502.006L1837.64 446.485L1909.93 446.485L1873.78 502.006Z" fill="white" fill-opacity="0.07"/>
</g>
<g opacity="0.7">
<path d="M-5.00937 278.024L-41.1509 222.502L31.1321 222.502L-5.00937 278.024Z" fill="white" fill-opacity="0.07"/>
<path d="M67.2737 278.024L31.1321 222.502L103.415 222.502L67.2737 278.024Z" fill="white" fill-opacity="0.16"/>
<path d="M139.557 278.024L103.415 222.502L175.698 222.502L139.557 278.024Z" fill="white" fill-opacity="0.27"/>
<path d="M211.84 278.024L175.698 222.502L247.981 222.502L211.84 278.024Z" fill="white" fill-opacity="0.46"/>
<path d="M284.123 278.024L247.981 222.502L320.264 222.502L284.123 278.024Z" fill="white" fill-opacity="0.16"/>
<path d="M356.406 278.024L320.264 222.502L392.547 222.502L356.406 278.024Z" fill="white" fill-opacity="0.76"/>
<path d="M428.689 278.024L392.547 222.502L464.83 222.502L428.689 278.024Z" fill="white" fill-opacity="0.07"/>
<path d="M500.972 278.024L464.83 222.502L537.113 222.502L500.972 278.024Z" fill="white" fill-opacity="0.46"/>
<path d="M573.255 278.024L537.113 222.502L609.396 222.502L573.255 278.024Z" fill="white" fill-opacity="0.12"/>
<path d="M645.538 278.024L609.396 222.502L681.679 222.502L645.538 278.024Z" fill="white" fill-opacity="0.46"/>
<path d="M717.821 278.024L681.679 222.502L753.962 222.502L717.821 278.024Z" fill="white" fill-opacity="0.16"/>
<path d="M790.104 278.024L753.962 222.502L826.245 222.502L790.104 278.024Z" fill="white" fill-opacity="0.16"/>
<path d="M862.387 278.024L826.245 222.502L898.528 222.502L862.387 278.024Z" fill="white" fill-opacity="0.07"/>
<path d="M934.67 278.024L898.529 222.502L970.812 222.502L934.67 278.024Z" fill="white" fill-opacity="0.16"/>
<path d="M1006.95 278.024L970.812 222.502L1043.09 222.502L1006.95 278.024Z" fill="white" fill-opacity="0.27"/>
<path d="M1079.24 278.024L1043.09 222.502L1115.38 222.502L1079.24 278.024Z" fill="white" fill-opacity="0.46"/>
<path d="M1151.52 278.024L1115.38 222.502L1187.66 222.502L1151.52 278.024Z" fill="white" fill-opacity="0.16"/>
<path d="M1223.8 278.024L1187.66 222.502L1259.94 222.502L1223.8 278.024Z" fill="white" fill-opacity="0.76"/>
<path d="M1296.09 278.024L1259.94 222.502L1332.23 222.502L1296.09 278.024Z" fill="white" fill-opacity="0.07"/>
<path d="M1368.37 278.024L1332.23 222.502L1404.51 222.502L1368.37 278.024Z" fill="white" fill-opacity="0.46"/>
<path d="M1440.65 278.024L1404.51 222.502L1476.79 222.502L1440.65 278.024Z" fill="white" fill-opacity="0.12"/>
<path d="M1512.93 278.024L1476.79 222.502L1549.08 222.502L1512.93 278.024Z" fill="white" fill-opacity="0.46"/>
<path d="M1585.22 278.024L1549.08 222.502L1621.36 222.502L1585.22 278.024Z" fill="white" fill-opacity="0.16"/>
<path d="M1657.5 278.024L1621.36 222.502L1693.64 222.502L1657.5 278.024Z" fill="white" fill-opacity="0.16"/>
<path d="M1729.78 278.024L1693.64 222.502L1765.93 222.502L1729.78 278.024Z" fill="white" fill-opacity="0.07"/>
<path d="M1802.07 278.024L1765.93 222.502L1838.21 222.502L1802.07 278.024Z" fill="white" fill-opacity="0.16"/>
<path d="M1874.35 278.024L1838.21 222.502L1910.49 222.502L1874.35 278.024Z" fill="white" fill-opacity="0.27"/>
<path d="M1946.63 278.024L1910.49 222.502L1982.77 222.502L1946.63 278.024Z" fill="white" fill-opacity="0.46"/>
</g>
<path d="M-4.44333 55.5195L-40.5848 -0.00221884L31.6982 -0.00221252L-4.44333 55.5195Z" fill="white" fill-opacity="0.27"/>
<path d="M67.8397 55.5195L31.6982 -0.00221884L103.981 -0.00221252L67.8397 55.5195Z" fill="white" fill-opacity="0.12"/>
<path d="M140.123 55.5195L103.981 -0.00221884L176.264 -0.00221252L140.123 55.5195Z" fill="white" fill-opacity="0.16"/>
<path d="M212.406 55.5195L176.264 -0.00221884L248.547 -0.00221252L212.406 55.5195Z" fill="white" fill-opacity="0.46"/>
<path d="M284.689 55.5195L248.547 -0.00221884L320.83 -0.00221252L284.689 55.5195Z" fill="white" fill-opacity="0.12"/>
<path d="M356.972 55.5195L320.83 -0.00221884L393.113 -0.00221252L356.972 55.5195Z" fill="white" fill-opacity="0.76"/>
<path d="M429.255 55.5195L393.113 -0.00221884L465.396 -0.00221252L429.255 55.5195Z" fill="white" fill-opacity="0.27"/>
<path d="M501.538 55.5195L465.396 -0.00221884L537.679 -0.00221252L501.538 55.5195Z" fill="white" fill-opacity="0.12"/>
<path d="M573.821 55.5195L537.679 -0.00221884L609.962 -0.00221252L573.821 55.5195Z" fill="white" fill-opacity="0.16"/>
<path d="M646.104 55.5195L609.962 -0.00221884L682.245 -0.00221252L646.104 55.5195Z" fill="white" fill-opacity="0.46"/>
<path d="M718.387 55.5195L682.245 -0.00221884L754.528 -0.00221252L718.387 55.5195Z" fill="white" fill-opacity="0.12"/>
<path d="M790.67 55.5195L754.529 -0.00221884L826.812 -0.00221252L790.67 55.5195Z" fill="white" fill-opacity="0.76"/>
<path d="M862.953 55.5195L826.812 -0.00221884L899.095 -0.00221252L862.953 55.5195Z" fill="white" fill-opacity="0.27"/>
<path d="M935.236 55.5195L899.095 -0.00221884L971.378 -0.00221252L935.236 55.5195Z" fill="white" fill-opacity="0.12"/>
<path d="M1007.52 55.5195L971.378 -0.00221884L1043.66 -0.00221252L1007.52 55.5195Z" fill="white" fill-opacity="0.16"/>
<path d="M1079.8 55.5195L1043.66 -0.00221884L1115.94 -0.00221252L1079.8 55.5195Z" fill="white" fill-opacity="0.46"/>
<path d="M1152.09 55.5195L1115.94 -0.00221884L1188.23 -0.00221252L1152.09 55.5195Z" fill="white" fill-opacity="0.12"/>
<path d="M1224.37 55.5195L1188.23 -0.00221884L1260.51 -0.00221252L1224.37 55.5195Z" fill="white" fill-opacity="0.76"/>
<path d="M1296.65 55.5195L1260.51 -0.00221884L1332.79 -0.00221252L1296.65 55.5195Z" fill="white" fill-opacity="0.27"/>
<path d="M1368.93 55.5195L1332.79 -0.00221884L1405.08 -0.00221252L1368.93 55.5195Z" fill="white" fill-opacity="0.12"/>
<path d="M1441.22 55.5195L1405.08 -0.00221884L1477.36 -0.00221252L1441.22 55.5195Z" fill="white" fill-opacity="0.16"/>
<path d="M1513.5 55.5195L1477.36 -0.00221884L1549.64 -0.00221252L1513.5 55.5195Z" fill="white" fill-opacity="0.46"/>
<path d="M1585.78 55.5195L1549.64 -0.00221884L1621.93 -0.00221252L1585.78 55.5195Z" fill="white" fill-opacity="0.12"/>
<path d="M1658.07 55.5195L1621.93 -0.00221884L1694.21 -0.00221252L1658.07 55.5195Z" fill="white" fill-opacity="0.76"/>
<path d="M1730.35 55.5195L1694.21 -0.00221884L1766.49 -0.00221252L1730.35 55.5195Z" fill="white" fill-opacity="0.27"/>
<path d="M1802.63 55.5195L1766.49 -0.00221884L1838.77 -0.00221252L1802.63 55.5195Z" fill="white" fill-opacity="0.12"/>
<path d="M1874.92 55.5195L1838.77 -0.00221884L1911.06 -0.00221252L1874.92 55.5195Z" fill="white" fill-opacity="0.16"/>
<path d="M1947.2 55.5195L1911.06 -0.00221884L1983.34 -0.00221252L1947.2 55.5195Z" fill="white" fill-opacity="0.46"/>
<g opacity="0.2">
<path d="M30.4246 558.002L-5.71695 502.48L66.5661 502.48L30.4246 558.002Z" fill="white" fill-opacity="0.16"/>
<path d="M102.708 558.002L66.5661 502.48L138.849 502.48L102.708 558.002Z" fill="white" fill-opacity="0.46"/>
<path d="M174.991 558.002L138.849 502.48L211.132 502.48L174.991 558.002Z" fill="white" fill-opacity="0.12"/>
<path d="M247.274 558.002L211.132 502.48L283.415 502.48L247.274 558.002Z" fill="white" fill-opacity="0.76"/>
<path d="M319.557 558.002L283.415 502.48L355.698 502.48L319.557 558.002Z" fill="white" fill-opacity="0.27"/>
<path d="M391.84 558.002L355.698 502.48L427.981 502.48L391.84 558.002Z" fill="white" fill-opacity="0.12"/>
<path d="M464.123 558.002L427.981 502.48L500.264 502.48L464.123 558.002Z" fill="white" fill-opacity="0.16"/>
<path d="M536.406 558.002L500.264 502.48L572.547 502.48L536.406 558.002Z" fill="white" fill-opacity="0.46"/>
<path d="M608.689 558.002L572.547 502.48L644.83 502.48L608.689 558.002Z" fill="white" fill-opacity="0.12"/>
<path d="M680.972 558.002L644.83 502.48L717.113 502.48L680.972 558.002Z" fill="white" fill-opacity="0.76"/>
<path d="M753.255 558.002L717.113 502.48L789.396 502.48L753.255 558.002Z" fill="white" fill-opacity="0.27"/>
<path d="M825.538 558.002L789.396 502.48L861.679 502.48L825.538 558.002Z" fill="white" fill-opacity="0.12"/>
<path d="M897.821 558.002L861.679 502.48L933.962 502.48L897.821 558.002Z" fill="white" fill-opacity="0.16"/>
<path d="M970.104 558.002L933.962 502.48L1006.25 502.48L970.104 558.002Z" fill="white" fill-opacity="0.46"/>
<path d="M1042.39 558.002L1006.25 502.48L1078.53 502.48L1042.39 558.002Z" fill="white" fill-opacity="0.12"/>
<path d="M1114.67 558.002L1078.53 502.48L1150.81 502.48L1114.67 558.002Z" fill="white" fill-opacity="0.76"/>
<path d="M1186.95 558.002L1150.81 502.48L1223.09 502.48L1186.95 558.002Z" fill="white" fill-opacity="0.27"/>
<path d="M1259.24 558.002L1223.09 502.48L1295.38 502.48L1259.24 558.002Z" fill="white" fill-opacity="0.12"/>
<path d="M1331.52 558.002L1295.38 502.48L1367.66 502.48L1331.52 558.002Z" fill="white" fill-opacity="0.16"/>
<path d="M1403.8 558.002L1367.66 502.48L1439.94 502.48L1403.8 558.002Z" fill="white" fill-opacity="0.46"/>
<path d="M1476.09 558.002L1439.94 502.48L1512.23 502.48L1476.09 558.002Z" fill="white" fill-opacity="0.12"/>
<path d="M1548.37 558.002L1512.23 502.48L1584.51 502.48L1548.37 558.002Z" fill="white" fill-opacity="0.76"/>
<path d="M1620.65 558.002L1584.51 502.48L1656.79 502.48L1620.65 558.002Z" fill="white" fill-opacity="0.27"/>
<path d="M1692.93 558.002L1656.79 502.48L1729.08 502.48L1692.93 558.002Z" fill="white" fill-opacity="0.12"/>
<path d="M1765.22 558.002L1729.08 502.48L1801.36 502.48L1765.22 558.002Z" fill="white" fill-opacity="0.16"/>
<path d="M1837.5 558.002L1801.36 502.48L1873.64 502.48L1837.5 558.002Z" fill="white" fill-opacity="0.46"/>
</g>
<g opacity="0.9">
<path d="M-4.72635 166.511L-40.8679 110.989L31.4152 110.989L-4.72635 166.511Z" fill="white" fill-opacity="0.46"/>
<path d="M67.5567 166.511L31.4152 110.989L103.698 110.989L67.5567 166.511Z" fill="white" fill-opacity="0.46"/>
<path d="M139.84 166.511L103.698 110.989L175.981 110.989L139.84 166.511Z" fill="white" fill-opacity="0.12"/>
<path d="M212.123 166.511L175.981 110.989L248.264 110.989L212.123 166.511Z" fill="white" fill-opacity="0.76"/>
<path d="M284.406 166.511L248.264 110.989L320.547 110.989L284.406 166.511Z" fill="white" fill-opacity="0.16"/>
<path d="M356.689 166.511L320.547 110.989L392.83 110.989L356.689 166.511Z" fill="white" fill-opacity="0.46"/>
<path d="M428.972 166.511L392.83 110.989L465.113 110.989L428.972 166.511Z" fill="white" fill-opacity="0.46"/>
<path d="M501.255 166.511L465.113 110.989L537.396 110.989L501.255 166.511Z" fill="white" fill-opacity="0.12"/>
<path d="M573.538 166.511L537.396 110.989L609.679 110.989L573.538 166.511Z" fill="white" fill-opacity="0.46"/>
<path d="M645.821 166.511L609.679 110.989L681.962 110.989L645.821 166.511Z" fill="white" fill-opacity="0.76"/>
<path d="M718.104 166.511L681.962 110.989L754.245 110.989L718.104 166.511Z" fill="white" fill-opacity="0.16"/>
<path d="M790.387 166.511L754.245 110.989L826.528 110.989L790.387 166.511Z" fill="white" fill-opacity="0.46"/>
<path d="M862.67 166.511L826.529 110.989L898.812 110.989L862.67 166.511Z" fill="white" fill-opacity="0.46"/>
<path d="M934.953 166.511L898.812 110.989L971.095 110.989L934.953 166.511Z" fill="white" fill-opacity="0.12"/>
<path d="M1007.24 166.511L971.095 110.989L1043.38 110.989L1007.24 166.511Z" fill="white" fill-opacity="0.76"/>
<path d="M1079.52 166.511L1043.38 110.989L1115.66 110.989L1079.52 166.511Z" fill="white" fill-opacity="0.16"/>
<path d="M1151.8 166.511L1115.66 110.989L1187.94 110.989L1151.8 166.511Z" fill="white" fill-opacity="0.46"/>
<path d="M1224.09 166.511L1187.94 110.989L1260.23 110.989L1224.09 166.511Z" fill="white" fill-opacity="0.46"/>
<path d="M1296.37 166.511L1260.23 110.989L1332.51 110.989L1296.37 166.511Z" fill="white" fill-opacity="0.12"/>
<path d="M1368.65 166.511L1332.51 110.989L1404.79 110.989L1368.65 166.511Z" fill="white" fill-opacity="0.46"/>
<path d="M1440.93 166.511L1404.79 110.989L1477.08 110.989L1440.93 166.511Z" fill="white" fill-opacity="0.76"/>
<path d="M1513.22 166.511L1477.08 110.989L1549.36 110.989L1513.22 166.511Z" fill="white" fill-opacity="0.16"/>
<path d="M1585.5 166.511L1549.36 110.989L1621.64 110.989L1585.5 166.511Z" fill="white" fill-opacity="0.46"/>
<path d="M1657.78 166.511L1621.64 110.989L1693.93 110.989L1657.78 166.511Z" fill="white" fill-opacity="0.46"/>
<path d="M1730.07 166.511L1693.93 110.989L1766.21 110.989L1730.07 166.511Z" fill="white" fill-opacity="0.12"/>
<path d="M1802.35 166.511L1766.21 110.989L1838.49 110.989L1802.35 166.511Z" fill="white" fill-opacity="0.76"/>
<path d="M1874.63 166.511L1838.49 110.989L1910.77 110.989L1874.63 166.511Z" fill="white" fill-opacity="0.16"/>
<path d="M1946.92 166.511L1910.77 110.989L1983.06 110.989L1946.92 166.511Z" fill="white" fill-opacity="0.46"/>
</g>
<g opacity="0.5">
<path d="M-5.2924 390.015L-41.4339 334.494L30.8491 334.494L-5.2924 390.015Z" fill="white" fill-opacity="0.46"/>
<path d="M66.9906 390.015L30.8491 334.494L103.132 334.494L66.9906 390.015Z" fill="white" fill-opacity="0.12"/>
<path d="M139.274 390.015L103.132 334.494L175.415 334.494L139.274 390.015Z" fill="white" fill-opacity="0.76"/>
<path d="M211.557 390.015L175.415 334.494L247.698 334.494L211.557 390.015Z" fill="white" fill-opacity="0.46"/>
<path d="M283.84 390.015L247.698 334.494L319.981 334.494L283.84 390.015Z" fill="white" fill-opacity="0.16"/>
<path d="M356.123 390.015L319.981 334.494L392.264 334.494L356.123 390.015Z" fill="white" fill-opacity="0.46"/>
<path d="M428.406 390.015L392.264 334.494L464.547 334.494L428.406 390.015Z" fill="white" fill-opacity="0.46"/>
<path d="M500.689 390.015L464.547 334.494L536.83 334.494L500.689 390.015Z" fill="white" fill-opacity="0.12"/>
<path d="M572.972 390.015L536.83 334.494L609.113 334.494L572.972 390.015Z" fill="white" fill-opacity="0.46"/>
<path d="M645.255 390.015L609.113 334.494L681.396 334.494L645.255 390.015Z" fill="white" fill-opacity="0.76"/>
<path d="M717.538 390.015L681.396 334.494L753.679 334.494L717.538 390.015Z" fill="white" fill-opacity="0.16"/>
<path d="M789.821 390.015L753.679 334.494L825.962 334.494L789.821 390.015Z" fill="white" fill-opacity="0.46"/>
<path d="M862.104 390.015L825.962 334.494L898.245 334.494L862.104 390.015Z" fill="white" fill-opacity="0.46"/>
<path d="M934.387 390.015L898.245 334.494L970.528 334.494L934.387 390.015Z" fill="white" fill-opacity="0.12"/>
<path d="M1006.67 390.015L970.529 334.494L1042.81 334.494L1006.67 390.015Z" fill="white" fill-opacity="0.76"/>
<path d="M1078.95 390.015L1042.81 334.494L1115.09 334.494L1078.95 390.015Z" fill="white" fill-opacity="0.46"/>
<path d="M1151.24 390.015L1115.09 334.494L1187.38 334.494L1151.24 390.015Z" fill="white" fill-opacity="0.16"/>
<path d="M1223.52 390.015L1187.38 334.494L1259.66 334.494L1223.52 390.015Z" fill="white" fill-opacity="0.46"/>
<path d="M1295.8 390.015L1259.66 334.494L1331.94 334.494L1295.8 390.015Z" fill="white" fill-opacity="0.46"/>
<path d="M1368.09 390.015L1331.94 334.494L1404.23 334.494L1368.09 390.015Z" fill="white" fill-opacity="0.12"/>
<path d="M1440.37 390.015L1404.23 334.494L1476.51 334.494L1440.37 390.015Z" fill="white" fill-opacity="0.46"/>
<path d="M1512.65 390.015L1476.51 334.494L1548.79 334.494L1512.65 390.015Z" fill="white" fill-opacity="0.76"/>
<path d="M1584.93 390.015L1548.79 334.494L1621.08 334.494L1584.93 390.015Z" fill="white" fill-opacity="0.16"/>
<path d="M1657.22 390.015L1621.08 334.494L1693.36 334.494L1657.22 390.015Z" fill="white" fill-opacity="0.46"/>
<path d="M1729.5 390.015L1693.36 334.494L1765.64 334.494L1729.5 390.015Z" fill="white" fill-opacity="0.46"/>
<path d="M1801.78 390.015L1765.64 334.494L1837.93 334.494L1801.78 390.015Z" fill="white" fill-opacity="0.12"/>
<path d="M1874.07 390.015L1837.93 334.494L1910.21 334.494L1874.07 390.015Z" fill="white" fill-opacity="0.76"/>
<path d="M1946.35 390.015L1910.21 334.494L1982.49 334.494L1946.35 390.015Z" fill="white" fill-opacity="0.46"/>
</g>
</g>
</g>
<defs>
<filter id="filter0_d_1_418" x="-406" y="-0.00219727" width="2610.19" height="566.004" filterUnits="userSpaceOnUse" color-interpolation-filters="sRGB">
<feFlood flood-opacity="0" result="BackgroundImageFix"/>
<feColorMatrix in="SourceAlpha" type="matrix" values="0 0 0 0 0 0 0 0 0 0 0 0 0 0 0 0 0 0 127 0" result="hardAlpha"/>
<feOffset dy="4"/>
<feGaussianBlur stdDeviation="2"/>
<feComposite in2="hardAlpha" operator="out"/>
<feColorMatrix type="matrix" values="0 0 0 0 0 0 0 0 0 0 0 0 0 0 0 0 0 0 0.25 0"/>
<feBlend mode="normal" in2="BackgroundImageFix" result="effect1_dropShadow_1_418"/>
<feBlend mode="normal" in="SourceGraphic" in2="effect1_dropShadow_1_418" result="shape"/>
</filter>
<clipPath id="clip0_1_418">
<rect width="1920" height="558" fill="white"/>
</clipPath>
</defs>
</svg>
